<mxfile host="Electron" modified="2024-09-01T15:23:48.340Z" agent="Mozilla/5.0 (Windows NT 10.0; Win64; x64) AppleWebKit/537.36 (KHTML, like Gecko) draw.io/24.6.4 Chrome/124.0.6367.207 Electron/30.0.6 Safari/537.36" etag="Fg2MuUTRbNAaR_htbB93" version="24.6.4" type="device">
  <diagram name="Page-1" id="DstqPgMHZkzPZ4Gv4dii">
    <mxGraphModel dx="3088" dy="2013" grid="1" gridSize="10" guides="1" tooltips="1" connect="1" arrows="1" fold="1" page="1" pageScale="1" pageWidth="827" pageHeight="1169" math="0" shadow="0">
      <root>
        <mxCell id="0" />
        <mxCell id="1" parent="0" />
        <mxCell id="jeF95xI8hNJmxF6Zv-FG-1" value="Haalmikah Fortress (ID = 0)" style="whiteSpace=wrap;html=1;aspect=fixed;align=center;horizontal=1;" parent="1" vertex="1">
          <mxGeometry x="400" y="220" width="90" height="90" as="geometry" />
        </mxCell>
        <mxCell id="jeF95xI8hNJmxF6Zv-FG-2" value="Haalmikah Region - East (ID = 1)" style="whiteSpace=wrap;html=1;aspect=fixed;align=center;horizontal=1;" parent="1" vertex="1">
          <mxGeometry x="230" y="220" width="90" height="90" as="geometry" />
        </mxCell>
        <mxCell id="jeF95xI8hNJmxF6Zv-FG-3" value="Gornich Bay - Western shore (ID = 4)" style="whiteSpace=wrap;html=1;aspect=fixed;align=center;horizontal=1;" parent="1" vertex="1">
          <mxGeometry x="400" y="70" width="90" height="90" as="geometry" />
        </mxCell>
        <mxCell id="jeF95xI8hNJmxF6Zv-FG-4" value="Haalmikah Region - West (ID = 2)" style="whiteSpace=wrap;html=1;aspect=fixed;align=center;horizontal=1;" parent="1" vertex="1">
          <mxGeometry x="70" y="220" width="90" height="90" as="geometry" />
        </mxCell>
        <mxCell id="jeF95xI8hNJmxF6Zv-FG-5" value="Haalmikah Region - Grove (ID = 3)" style="whiteSpace=wrap;html=1;aspect=fixed;align=center;horizontal=1;" parent="1" vertex="1">
          <mxGeometry x="70" y="370" width="90" height="90" as="geometry" />
        </mxCell>
        <mxCell id="jeF95xI8hNJmxF6Zv-FG-6" value="Pernambulian Palace" style="whiteSpace=wrap;html=1;aspect=fixed;align=center;horizontal=1;" parent="1" vertex="1">
          <mxGeometry x="70" y="70" width="90" height="90" as="geometry" />
        </mxCell>
        <mxCell id="jeF95xI8hNJmxF6Zv-FG-7" value="Gramont Woods" style="whiteSpace=wrap;html=1;aspect=fixed;align=center;horizontal=1;" parent="1" vertex="1">
          <mxGeometry x="230" y="495" width="90" height="90" as="geometry" />
        </mxCell>
        <mxCell id="jeF95xI8hNJmxF6Zv-FG-8" value="" style="endArrow=none;html=1;rounded=0;exitX=1;exitY=0.5;exitDx=0;exitDy=0;entryX=0;entryY=0.5;entryDx=0;entryDy=0;" parent="1" source="jeF95xI8hNJmxF6Zv-FG-2" target="jeF95xI8hNJmxF6Zv-FG-1" edge="1">
          <mxGeometry width="50" height="50" relative="1" as="geometry">
            <mxPoint x="390" y="470" as="sourcePoint" />
            <mxPoint x="440" y="420" as="targetPoint" />
          </mxGeometry>
        </mxCell>
        <mxCell id="jeF95xI8hNJmxF6Zv-FG-9" value="" style="endArrow=none;html=1;rounded=0;exitX=0.5;exitY=0;exitDx=0;exitDy=0;entryX=0;entryY=0.5;entryDx=0;entryDy=0;" parent="1" source="jeF95xI8hNJmxF6Zv-FG-2" target="jeF95xI8hNJmxF6Zv-FG-3" edge="1">
          <mxGeometry width="50" height="50" relative="1" as="geometry">
            <mxPoint x="390" y="470" as="sourcePoint" />
            <mxPoint x="440" y="420" as="targetPoint" />
            <Array as="points">
              <mxPoint x="275" y="115" />
            </Array>
          </mxGeometry>
        </mxCell>
        <mxCell id="jeF95xI8hNJmxF6Zv-FG-10" value="" style="endArrow=none;html=1;rounded=0;exitX=1;exitY=0.5;exitDx=0;exitDy=0;entryX=0;entryY=0.5;entryDx=0;entryDy=0;" parent="1" source="jeF95xI8hNJmxF6Zv-FG-4" target="jeF95xI8hNJmxF6Zv-FG-2" edge="1">
          <mxGeometry width="50" height="50" relative="1" as="geometry">
            <mxPoint x="390" y="470" as="sourcePoint" />
            <mxPoint x="440" y="420" as="targetPoint" />
          </mxGeometry>
        </mxCell>
        <mxCell id="jeF95xI8hNJmxF6Zv-FG-11" value="" style="endArrow=none;html=1;rounded=0;exitX=0.5;exitY=1;exitDx=0;exitDy=0;entryX=0.5;entryY=0;entryDx=0;entryDy=0;" parent="1" source="jeF95xI8hNJmxF6Zv-FG-6" target="jeF95xI8hNJmxF6Zv-FG-4" edge="1">
          <mxGeometry width="50" height="50" relative="1" as="geometry">
            <mxPoint x="390" y="470" as="sourcePoint" />
            <mxPoint x="440" y="420" as="targetPoint" />
          </mxGeometry>
        </mxCell>
        <mxCell id="jeF95xI8hNJmxF6Zv-FG-12" value="" style="endArrow=none;html=1;rounded=0;exitX=0.5;exitY=1;exitDx=0;exitDy=0;entryX=0.5;entryY=0;entryDx=0;entryDy=0;" parent="1" source="jeF95xI8hNJmxF6Zv-FG-4" target="jeF95xI8hNJmxF6Zv-FG-5" edge="1">
          <mxGeometry width="50" height="50" relative="1" as="geometry">
            <mxPoint x="390" y="470" as="sourcePoint" />
            <mxPoint x="440" y="420" as="targetPoint" />
          </mxGeometry>
        </mxCell>
        <mxCell id="jeF95xI8hNJmxF6Zv-FG-13" value="" style="endArrow=none;html=1;rounded=0;exitX=0.5;exitY=1;exitDx=0;exitDy=0;entryX=0.5;entryY=0;entryDx=0;entryDy=0;" parent="1" source="jeF95xI8hNJmxF6Zv-FG-2" target="jeF95xI8hNJmxF6Zv-FG-7" edge="1">
          <mxGeometry width="50" height="50" relative="1" as="geometry">
            <mxPoint x="390" y="470" as="sourcePoint" />
            <mxPoint x="440" y="420" as="targetPoint" />
          </mxGeometry>
        </mxCell>
        <mxCell id="jeF95xI8hNJmxF6Zv-FG-14" value="Gramont Hills - West" style="whiteSpace=wrap;html=1;aspect=fixed;align=center;horizontal=1;" parent="1" vertex="1">
          <mxGeometry x="400" y="495" width="90" height="90" as="geometry" />
        </mxCell>
        <mxCell id="jeF95xI8hNJmxF6Zv-FG-15" value="Gramont Hills - East" style="whiteSpace=wrap;html=1;aspect=fixed;align=center;horizontal=1;" parent="1" vertex="1">
          <mxGeometry x="560" y="495" width="90" height="90" as="geometry" />
        </mxCell>
        <mxCell id="jeF95xI8hNJmxF6Zv-FG-16" value="" style="endArrow=none;html=1;rounded=0;exitX=1;exitY=0.5;exitDx=0;exitDy=0;entryX=0;entryY=0.5;entryDx=0;entryDy=0;" parent="1" source="jeF95xI8hNJmxF6Zv-FG-7" target="jeF95xI8hNJmxF6Zv-FG-14" edge="1">
          <mxGeometry width="50" height="50" relative="1" as="geometry">
            <mxPoint x="390" y="470" as="sourcePoint" />
            <mxPoint x="440" y="420" as="targetPoint" />
          </mxGeometry>
        </mxCell>
        <mxCell id="jeF95xI8hNJmxF6Zv-FG-17" value="" style="endArrow=none;html=1;rounded=0;exitX=1;exitY=0.5;exitDx=0;exitDy=0;entryX=0;entryY=0.5;entryDx=0;entryDy=0;" parent="1" source="jeF95xI8hNJmxF6Zv-FG-14" target="jeF95xI8hNJmxF6Zv-FG-15" edge="1">
          <mxGeometry width="50" height="50" relative="1" as="geometry">
            <mxPoint x="390" y="470" as="sourcePoint" />
            <mxPoint x="440" y="420" as="targetPoint" />
          </mxGeometry>
        </mxCell>
        <mxCell id="jeF95xI8hNJmxF6Zv-FG-18" value="Appeus Fields" style="whiteSpace=wrap;html=1;aspect=fixed;align=center;horizontal=1;" parent="1" vertex="1">
          <mxGeometry x="690" y="360" width="90" height="90" as="geometry" />
        </mxCell>
        <mxCell id="jeF95xI8hNJmxF6Zv-FG-19" value="" style="endArrow=none;html=1;rounded=0;exitX=1;exitY=0.5;exitDx=0;exitDy=0;entryX=0.5;entryY=1;entryDx=0;entryDy=0;" parent="1" source="jeF95xI8hNJmxF6Zv-FG-15" target="jeF95xI8hNJmxF6Zv-FG-18" edge="1">
          <mxGeometry width="50" height="50" relative="1" as="geometry">
            <mxPoint x="390" y="470" as="sourcePoint" />
            <mxPoint x="440" y="420" as="targetPoint" />
            <Array as="points">
              <mxPoint x="735" y="540" />
            </Array>
          </mxGeometry>
        </mxCell>
        <mxCell id="jeF95xI8hNJmxF6Zv-FG-20" value="Village of Heratum" style="whiteSpace=wrap;html=1;aspect=fixed;align=center;horizontal=1;" parent="1" vertex="1">
          <mxGeometry x="690" y="220" width="90" height="90" as="geometry" />
        </mxCell>
        <mxCell id="jeF95xI8hNJmxF6Zv-FG-21" value="" style="endArrow=none;html=1;rounded=0;entryX=0.5;entryY=1;entryDx=0;entryDy=0;exitX=0.5;exitY=0;exitDx=0;exitDy=0;" parent="1" source="jeF95xI8hNJmxF6Zv-FG-18" target="jeF95xI8hNJmxF6Zv-FG-20" edge="1">
          <mxGeometry width="50" height="50" relative="1" as="geometry">
            <mxPoint x="390" y="470" as="sourcePoint" />
            <mxPoint x="440" y="420" as="targetPoint" />
          </mxGeometry>
        </mxCell>
        <mxCell id="jeF95xI8hNJmxF6Zv-FG-22" value="Farment Region - East" style="whiteSpace=wrap;html=1;aspect=fixed;align=center;horizontal=1;" parent="1" vertex="1">
          <mxGeometry x="70" y="570" width="90" height="90" as="geometry" />
        </mxCell>
        <mxCell id="jeF95xI8hNJmxF6Zv-FG-23" value="" style="endArrow=none;html=1;rounded=0;exitX=1;exitY=0.5;exitDx=0;exitDy=0;entryX=0.5;entryY=1;entryDx=0;entryDy=0;" parent="1" source="jeF95xI8hNJmxF6Zv-FG-22" target="jeF95xI8hNJmxF6Zv-FG-7" edge="1">
          <mxGeometry width="50" height="50" relative="1" as="geometry">
            <mxPoint x="390" y="470" as="sourcePoint" />
            <mxPoint x="440" y="420" as="targetPoint" />
            <Array as="points">
              <mxPoint x="275" y="615" />
            </Array>
          </mxGeometry>
        </mxCell>
        <mxCell id="jeF95xI8hNJmxF6Zv-FG-25" value="Village of Farment" style="whiteSpace=wrap;html=1;aspect=fixed;align=center;horizontal=1;" parent="1" vertex="1">
          <mxGeometry x="-110" y="570" width="90" height="90" as="geometry" />
        </mxCell>
        <mxCell id="jeF95xI8hNJmxF6Zv-FG-26" value="" style="endArrow=none;html=1;rounded=0;exitX=1;exitY=0.5;exitDx=0;exitDy=0;entryX=0;entryY=0.5;entryDx=0;entryDy=0;" parent="1" source="jeF95xI8hNJmxF6Zv-FG-25" target="jeF95xI8hNJmxF6Zv-FG-22" edge="1">
          <mxGeometry width="50" height="50" relative="1" as="geometry">
            <mxPoint x="390" y="470" as="sourcePoint" />
            <mxPoint x="440" y="420" as="targetPoint" />
          </mxGeometry>
        </mxCell>
        <mxCell id="jeF95xI8hNJmxF6Zv-FG-27" value="Farment Region - West" style="whiteSpace=wrap;html=1;aspect=fixed;align=center;horizontal=1;" parent="1" vertex="1">
          <mxGeometry x="-300" y="570" width="90" height="90" as="geometry" />
        </mxCell>
        <mxCell id="jeF95xI8hNJmxF6Zv-FG-28" value="" style="endArrow=none;html=1;rounded=0;exitX=1;exitY=0.5;exitDx=0;exitDy=0;entryX=0;entryY=0.5;entryDx=0;entryDy=0;" parent="1" source="jeF95xI8hNJmxF6Zv-FG-27" target="jeF95xI8hNJmxF6Zv-FG-25" edge="1">
          <mxGeometry width="50" height="50" relative="1" as="geometry">
            <mxPoint x="-230" y="470" as="sourcePoint" />
            <mxPoint x="-180" y="420" as="targetPoint" />
          </mxGeometry>
        </mxCell>
        <mxCell id="jeF95xI8hNJmxF6Zv-FG-29" value="Farment Mines" style="whiteSpace=wrap;html=1;aspect=fixed;align=center;horizontal=1;" parent="1" vertex="1">
          <mxGeometry x="-480" y="570" width="90" height="90" as="geometry" />
        </mxCell>
        <mxCell id="jeF95xI8hNJmxF6Zv-FG-30" value="" style="endArrow=none;html=1;rounded=0;exitX=1;exitY=0.5;exitDx=0;exitDy=0;entryX=0;entryY=0.5;entryDx=0;entryDy=0;" parent="1" source="jeF95xI8hNJmxF6Zv-FG-29" target="jeF95xI8hNJmxF6Zv-FG-27" edge="1">
          <mxGeometry width="50" height="50" relative="1" as="geometry">
            <mxPoint x="-230" y="470" as="sourcePoint" />
            <mxPoint x="-180" y="420" as="targetPoint" />
          </mxGeometry>
        </mxCell>
        <mxCell id="jeF95xI8hNJmxF6Zv-FG-32" value="Farment Region - North" style="whiteSpace=wrap;html=1;aspect=fixed;align=center;horizontal=1;" parent="1" vertex="1">
          <mxGeometry x="-110" y="370" width="90" height="90" as="geometry" />
        </mxCell>
        <mxCell id="jeF95xI8hNJmxF6Zv-FG-33" value="" style="endArrow=none;html=1;rounded=0;exitX=0.5;exitY=0;exitDx=0;exitDy=0;entryX=0.5;entryY=1;entryDx=0;entryDy=0;" parent="1" source="jeF95xI8hNJmxF6Zv-FG-25" target="jeF95xI8hNJmxF6Zv-FG-32" edge="1">
          <mxGeometry width="50" height="50" relative="1" as="geometry">
            <mxPoint x="-230" y="470" as="sourcePoint" />
            <mxPoint x="-180" y="420" as="targetPoint" />
          </mxGeometry>
        </mxCell>
        <mxCell id="jeF95xI8hNJmxF6Zv-FG-35" value="Ormentia Forest - East" style="whiteSpace=wrap;html=1;aspect=fixed;align=center;horizontal=1;" parent="1" vertex="1">
          <mxGeometry x="-110" y="220" width="90" height="90" as="geometry" />
        </mxCell>
        <mxCell id="jeF95xI8hNJmxF6Zv-FG-36" value="" style="endArrow=none;html=1;rounded=0;exitX=0.5;exitY=1;exitDx=0;exitDy=0;entryX=0.5;entryY=0;entryDx=0;entryDy=0;" parent="1" source="jeF95xI8hNJmxF6Zv-FG-35" target="jeF95xI8hNJmxF6Zv-FG-32" edge="1">
          <mxGeometry width="50" height="50" relative="1" as="geometry">
            <mxPoint x="-100" y="480" as="sourcePoint" />
            <mxPoint x="-50" y="430" as="targetPoint" />
          </mxGeometry>
        </mxCell>
        <mxCell id="jeF95xI8hNJmxF6Zv-FG-37" value="Ormentia Forest - Heart" style="whiteSpace=wrap;html=1;aspect=fixed;align=center;horizontal=1;" parent="1" vertex="1">
          <mxGeometry x="-290" y="220" width="90" height="90" as="geometry" />
        </mxCell>
        <mxCell id="jeF95xI8hNJmxF6Zv-FG-38" value="Ormentia Forest - West" style="whiteSpace=wrap;html=1;aspect=fixed;align=center;horizontal=1;" parent="1" vertex="1">
          <mxGeometry x="-480" y="220" width="90" height="90" as="geometry" />
        </mxCell>
        <mxCell id="jeF95xI8hNJmxF6Zv-FG-39" value="" style="endArrow=none;html=1;rounded=0;exitX=1;exitY=0.5;exitDx=0;exitDy=0;entryX=0;entryY=0.5;entryDx=0;entryDy=0;" parent="1" source="jeF95xI8hNJmxF6Zv-FG-37" target="jeF95xI8hNJmxF6Zv-FG-35" edge="1">
          <mxGeometry width="50" height="50" relative="1" as="geometry">
            <mxPoint x="-100" y="480" as="sourcePoint" />
            <mxPoint x="-50" y="430" as="targetPoint" />
          </mxGeometry>
        </mxCell>
        <mxCell id="jeF95xI8hNJmxF6Zv-FG-40" value="" style="endArrow=none;html=1;rounded=0;exitX=1;exitY=0.5;exitDx=0;exitDy=0;entryX=0;entryY=0.5;entryDx=0;entryDy=0;" parent="1" source="jeF95xI8hNJmxF6Zv-FG-38" target="jeF95xI8hNJmxF6Zv-FG-37" edge="1">
          <mxGeometry width="50" height="50" relative="1" as="geometry">
            <mxPoint x="-100" y="480" as="sourcePoint" />
            <mxPoint x="-50" y="430" as="targetPoint" />
          </mxGeometry>
        </mxCell>
        <mxCell id="jeF95xI8hNJmxF6Zv-FG-41" value="Ganymede Sanctuary" style="whiteSpace=wrap;html=1;aspect=fixed;align=center;horizontal=1;" parent="1" vertex="1">
          <mxGeometry x="-290" y="60" width="90" height="90" as="geometry" />
        </mxCell>
        <mxCell id="jeF95xI8hNJmxF6Zv-FG-42" value="" style="endArrow=none;html=1;rounded=0;exitX=0.5;exitY=0;exitDx=0;exitDy=0;entryX=0.5;entryY=1;entryDx=0;entryDy=0;" parent="1" source="jeF95xI8hNJmxF6Zv-FG-37" target="jeF95xI8hNJmxF6Zv-FG-41" edge="1">
          <mxGeometry width="50" height="50" relative="1" as="geometry">
            <mxPoint x="-100" y="480" as="sourcePoint" />
            <mxPoint x="-50" y="430" as="targetPoint" />
          </mxGeometry>
        </mxCell>
        <mxCell id="jeF95xI8hNJmxF6Zv-FG-43" value="Pernambulian shore - North" style="whiteSpace=wrap;html=1;aspect=fixed;align=center;horizontal=1;" parent="1" vertex="1">
          <mxGeometry x="-650" y="220" width="90" height="90" as="geometry" />
        </mxCell>
        <mxCell id="jeF95xI8hNJmxF6Zv-FG-44" value="" style="endArrow=none;html=1;rounded=0;exitX=1;exitY=0.5;exitDx=0;exitDy=0;entryX=0;entryY=0.5;entryDx=0;entryDy=0;" parent="1" source="jeF95xI8hNJmxF6Zv-FG-43" target="jeF95xI8hNJmxF6Zv-FG-38" edge="1">
          <mxGeometry width="50" height="50" relative="1" as="geometry">
            <mxPoint x="-100" y="480" as="sourcePoint" />
            <mxPoint x="-50" y="430" as="targetPoint" />
          </mxGeometry>
        </mxCell>
        <mxCell id="jeF95xI8hNJmxF6Zv-FG-45" value="City of Walaska" style="whiteSpace=wrap;html=1;aspect=fixed;align=center;horizontal=1;" parent="1" vertex="1">
          <mxGeometry x="930" y="100" width="90" height="90" as="geometry" />
        </mxCell>
        <mxCell id="jeF95xI8hNJmxF6Zv-FG-46" value="" style="endArrow=none;dashed=1;html=1;dashPattern=1 3;strokeWidth=2;rounded=0;exitX=1;exitY=0.5;exitDx=0;exitDy=0;entryX=0.5;entryY=1;entryDx=0;entryDy=0;" parent="1" source="jeF95xI8hNJmxF6Zv-FG-20" target="jeF95xI8hNJmxF6Zv-FG-45" edge="1">
          <mxGeometry width="50" height="50" relative="1" as="geometry">
            <mxPoint x="550" y="480" as="sourcePoint" />
            <mxPoint x="600" y="430" as="targetPoint" />
            <Array as="points">
              <mxPoint x="975" y="265" />
            </Array>
          </mxGeometry>
        </mxCell>
        <mxCell id="jeF95xI8hNJmxF6Zv-FG-47" value="Via Drill" style="shape=note;whiteSpace=wrap;html=1;backgroundOutline=1;darkOpacity=0.05;" parent="1" vertex="1">
          <mxGeometry x="960" y="320" width="140" height="60" as="geometry" />
        </mxCell>
        <mxCell id="jeF95xI8hNJmxF6Zv-FG-48" value="" style="endArrow=none;html=1;rounded=0;entryX=0;entryY=0;entryDx=25;entryDy=0;entryPerimeter=0;" parent="1" target="jeF95xI8hNJmxF6Zv-FG-47" edge="1">
          <mxGeometry width="50" height="50" relative="1" as="geometry">
            <mxPoint x="930" y="270" as="sourcePoint" />
            <mxPoint x="600" y="430" as="targetPoint" />
          </mxGeometry>
        </mxCell>
        <mxCell id="jeF95xI8hNJmxF6Zv-FG-49" value="Desert of Walaska - West" style="whiteSpace=wrap;html=1;aspect=fixed;align=center;horizontal=1;" parent="1" vertex="1">
          <mxGeometry x="790" y="100" width="90" height="90" as="geometry" />
        </mxCell>
        <mxCell id="jeF95xI8hNJmxF6Zv-FG-50" value="Desert of Walaska - East" style="whiteSpace=wrap;html=1;aspect=fixed;align=center;horizontal=1;" parent="1" vertex="1">
          <mxGeometry x="1070" y="100" width="90" height="90" as="geometry" />
        </mxCell>
        <mxCell id="jeF95xI8hNJmxF6Zv-FG-51" value="Desert of Walaska - North" style="whiteSpace=wrap;html=1;aspect=fixed;align=center;horizontal=1;" parent="1" vertex="1">
          <mxGeometry x="930" y="-40" width="90" height="90" as="geometry" />
        </mxCell>
        <mxCell id="jeF95xI8hNJmxF6Zv-FG-52" value="" style="endArrow=none;html=1;rounded=0;exitX=1;exitY=0.5;exitDx=0;exitDy=0;entryX=0;entryY=0.5;entryDx=0;entryDy=0;" parent="1" source="jeF95xI8hNJmxF6Zv-FG-49" target="jeF95xI8hNJmxF6Zv-FG-45" edge="1">
          <mxGeometry width="50" height="50" relative="1" as="geometry">
            <mxPoint x="870" y="290" as="sourcePoint" />
            <mxPoint x="920" y="240" as="targetPoint" />
          </mxGeometry>
        </mxCell>
        <mxCell id="jeF95xI8hNJmxF6Zv-FG-54" value="" style="endArrow=none;html=1;rounded=0;exitX=0.5;exitY=1;exitDx=0;exitDy=0;entryX=0.5;entryY=0;entryDx=0;entryDy=0;" parent="1" source="jeF95xI8hNJmxF6Zv-FG-51" target="jeF95xI8hNJmxF6Zv-FG-45" edge="1">
          <mxGeometry width="50" height="50" relative="1" as="geometry">
            <mxPoint x="870" y="290" as="sourcePoint" />
            <mxPoint x="920" y="240" as="targetPoint" />
          </mxGeometry>
        </mxCell>
        <mxCell id="jeF95xI8hNJmxF6Zv-FG-55" value="" style="endArrow=none;html=1;rounded=0;exitX=1;exitY=0.5;exitDx=0;exitDy=0;entryX=0;entryY=0.5;entryDx=0;entryDy=0;" parent="1" source="jeF95xI8hNJmxF6Zv-FG-45" target="jeF95xI8hNJmxF6Zv-FG-50" edge="1">
          <mxGeometry width="50" height="50" relative="1" as="geometry">
            <mxPoint x="870" y="290" as="sourcePoint" />
            <mxPoint x="920" y="240" as="targetPoint" />
          </mxGeometry>
        </mxCell>
        <mxCell id="jeF95xI8hNJmxF6Zv-FG-56" value="Cave of Walaska" style="whiteSpace=wrap;html=1;aspect=fixed;align=center;horizontal=1;" parent="1" vertex="1">
          <mxGeometry x="790" y="-40" width="90" height="90" as="geometry" />
        </mxCell>
        <mxCell id="jeF95xI8hNJmxF6Zv-FG-57" value="" style="endArrow=none;html=1;rounded=0;exitX=1;exitY=0.5;exitDx=0;exitDy=0;entryX=0;entryY=0.5;entryDx=0;entryDy=0;" parent="1" source="jeF95xI8hNJmxF6Zv-FG-56" target="jeF95xI8hNJmxF6Zv-FG-51" edge="1">
          <mxGeometry width="50" height="50" relative="1" as="geometry">
            <mxPoint x="910" y="160" as="sourcePoint" />
            <mxPoint x="960" y="110" as="targetPoint" />
          </mxGeometry>
        </mxCell>
        <mxCell id="jeF95xI8hNJmxF6Zv-FG-58" value="Prison of Walaska" style="whiteSpace=wrap;html=1;aspect=fixed;align=center;horizontal=1;" parent="1" vertex="1">
          <mxGeometry x="790" y="-170" width="90" height="90" as="geometry" />
        </mxCell>
        <mxCell id="jeF95xI8hNJmxF6Zv-FG-59" value="" style="endArrow=none;html=1;rounded=0;exitX=0.5;exitY=1;exitDx=0;exitDy=0;entryX=0.5;entryY=0;entryDx=0;entryDy=0;" parent="1" source="jeF95xI8hNJmxF6Zv-FG-58" target="jeF95xI8hNJmxF6Zv-FG-56" edge="1">
          <mxGeometry width="50" height="50" relative="1" as="geometry">
            <mxPoint x="910" y="160" as="sourcePoint" />
            <mxPoint x="960" y="110" as="targetPoint" />
          </mxGeometry>
        </mxCell>
        <mxCell id="jeF95xI8hNJmxF6Zv-FG-60" value="Scormuth underground" style="whiteSpace=wrap;html=1;aspect=fixed;align=center;horizontal=1;" parent="1" vertex="1">
          <mxGeometry x="640" y="-40" width="90" height="90" as="geometry" />
        </mxCell>
        <mxCell id="jeF95xI8hNJmxF6Zv-FG-61" value="" style="endArrow=none;html=1;rounded=0;exitX=1;exitY=0.5;exitDx=0;exitDy=0;entryX=0;entryY=0.5;entryDx=0;entryDy=0;" parent="1" source="jeF95xI8hNJmxF6Zv-FG-60" target="jeF95xI8hNJmxF6Zv-FG-56" edge="1">
          <mxGeometry width="50" height="50" relative="1" as="geometry">
            <mxPoint x="910" y="160" as="sourcePoint" />
            <mxPoint x="960" y="110" as="targetPoint" />
          </mxGeometry>
        </mxCell>
        <mxCell id="jeF95xI8hNJmxF6Zv-FG-62" value="" style="endArrow=none;html=1;rounded=0;exitX=0.5;exitY=0;exitDx=0;exitDy=0;entryX=0;entryY=0.5;entryDx=0;entryDy=0;" parent="1" source="jeF95xI8hNJmxF6Zv-FG-60" target="jeF95xI8hNJmxF6Zv-FG-58" edge="1">
          <mxGeometry width="50" height="50" relative="1" as="geometry">
            <mxPoint x="910" y="160" as="sourcePoint" />
            <mxPoint x="960" y="110" as="targetPoint" />
            <Array as="points">
              <mxPoint x="685" y="-125" />
            </Array>
          </mxGeometry>
        </mxCell>
        <mxCell id="jeF95xI8hNJmxF6Zv-FG-63" value="Gornich Bay - Eastern shore" style="whiteSpace=wrap;html=1;aspect=fixed;align=center;horizontal=1;" parent="1" vertex="1">
          <mxGeometry x="540" y="70" width="90" height="90" as="geometry" />
        </mxCell>
        <mxCell id="jeF95xI8hNJmxF6Zv-FG-64" value="" style="endArrow=none;html=1;rounded=0;exitX=0.5;exitY=1;exitDx=0;exitDy=0;entryX=1;entryY=0.5;entryDx=0;entryDy=0;" parent="1" source="jeF95xI8hNJmxF6Zv-FG-60" target="jeF95xI8hNJmxF6Zv-FG-63" edge="1">
          <mxGeometry width="50" height="50" relative="1" as="geometry">
            <mxPoint x="910" y="160" as="sourcePoint" />
            <mxPoint x="960" y="110" as="targetPoint" />
            <Array as="points">
              <mxPoint x="685" y="115" />
            </Array>
          </mxGeometry>
        </mxCell>
        <mxCell id="jeF95xI8hNJmxF6Zv-FG-65" value="" style="endArrow=none;html=1;rounded=0;exitX=1;exitY=0.5;exitDx=0;exitDy=0;" parent="1" source="jeF95xI8hNJmxF6Zv-FG-3" edge="1">
          <mxGeometry width="50" height="50" relative="1" as="geometry">
            <mxPoint x="910" y="160" as="sourcePoint" />
            <mxPoint x="540" y="115" as="targetPoint" />
          </mxGeometry>
        </mxCell>
        <mxCell id="jeF95xI8hNJmxF6Zv-FG-66" value="Kalfim Mounts - South" style="whiteSpace=wrap;html=1;aspect=fixed;align=center;horizontal=1;" parent="1" vertex="1">
          <mxGeometry x="-800" y="220" width="90" height="90" as="geometry" />
        </mxCell>
        <mxCell id="jeF95xI8hNJmxF6Zv-FG-67" value="Kalfim Mounts - North" style="whiteSpace=wrap;html=1;aspect=fixed;align=center;horizontal=1;" parent="1" vertex="1">
          <mxGeometry x="-800" y="70" width="90" height="90" as="geometry" />
        </mxCell>
        <mxCell id="jeF95xI8hNJmxF6Zv-FG-68" value="" style="endArrow=none;html=1;rounded=0;exitX=0;exitY=0.5;exitDx=0;exitDy=0;entryX=1;entryY=0.5;entryDx=0;entryDy=0;" parent="1" source="jeF95xI8hNJmxF6Zv-FG-43" target="jeF95xI8hNJmxF6Zv-FG-66" edge="1">
          <mxGeometry width="50" height="50" relative="1" as="geometry">
            <mxPoint x="-250" y="340" as="sourcePoint" />
            <mxPoint x="-200" y="290" as="targetPoint" />
          </mxGeometry>
        </mxCell>
        <mxCell id="jeF95xI8hNJmxF6Zv-FG-69" value="" style="endArrow=none;html=1;rounded=0;exitX=0.5;exitY=0;exitDx=0;exitDy=0;entryX=0.5;entryY=1;entryDx=0;entryDy=0;" parent="1" source="jeF95xI8hNJmxF6Zv-FG-66" target="jeF95xI8hNJmxF6Zv-FG-67" edge="1">
          <mxGeometry width="50" height="50" relative="1" as="geometry">
            <mxPoint x="-250" y="340" as="sourcePoint" />
            <mxPoint x="-200" y="290" as="targetPoint" />
          </mxGeometry>
        </mxCell>
        <mxCell id="jeF95xI8hNJmxF6Zv-FG-70" value="Kalfim Woods" style="whiteSpace=wrap;html=1;aspect=fixed;align=center;horizontal=1;" parent="1" vertex="1">
          <mxGeometry x="-800" y="-90" width="90" height="90" as="geometry" />
        </mxCell>
        <mxCell id="jeF95xI8hNJmxF6Zv-FG-71" value="Imperial City of Kalfim" style="whiteSpace=wrap;html=1;aspect=fixed;align=center;horizontal=1;" parent="1" vertex="1">
          <mxGeometry x="-650" y="-90" width="90" height="90" as="geometry" />
        </mxCell>
        <mxCell id="jeF95xI8hNJmxF6Zv-FG-72" value="" style="endArrow=none;html=1;rounded=0;exitX=0.5;exitY=0;exitDx=0;exitDy=0;entryX=0.5;entryY=1;entryDx=0;entryDy=0;" parent="1" source="jeF95xI8hNJmxF6Zv-FG-67" target="jeF95xI8hNJmxF6Zv-FG-70" edge="1">
          <mxGeometry width="50" height="50" relative="1" as="geometry">
            <mxPoint x="-380" y="210" as="sourcePoint" />
            <mxPoint x="-330" y="160" as="targetPoint" />
          </mxGeometry>
        </mxCell>
        <mxCell id="jeF95xI8hNJmxF6Zv-FG-73" value="" style="endArrow=none;html=1;rounded=0;exitX=1;exitY=0.5;exitDx=0;exitDy=0;entryX=0;entryY=0.5;entryDx=0;entryDy=0;" parent="1" source="jeF95xI8hNJmxF6Zv-FG-70" target="jeF95xI8hNJmxF6Zv-FG-71" edge="1">
          <mxGeometry width="50" height="50" relative="1" as="geometry">
            <mxPoint x="-380" y="210" as="sourcePoint" />
            <mxPoint x="-330" y="160" as="targetPoint" />
          </mxGeometry>
        </mxCell>
        <mxCell id="jeF95xI8hNJmxF6Zv-FG-74" value="Gramont Cave - 1st Basement" style="whiteSpace=wrap;html=1;aspect=fixed;align=center;horizontal=1;" parent="1" vertex="1">
          <mxGeometry x="480" y="660" width="90" height="90" as="geometry" />
        </mxCell>
        <mxCell id="jeF95xI8hNJmxF6Zv-FG-75" value="" style="endArrow=none;html=1;rounded=0;exitX=0;exitY=0.5;exitDx=0;exitDy=0;entryX=0.5;entryY=1;entryDx=0;entryDy=0;" parent="1" source="jeF95xI8hNJmxF6Zv-FG-74" target="jeF95xI8hNJmxF6Zv-FG-14" edge="1">
          <mxGeometry width="50" height="50" relative="1" as="geometry">
            <mxPoint x="400" y="470" as="sourcePoint" />
            <mxPoint x="450" y="420" as="targetPoint" />
            <Array as="points">
              <mxPoint x="445" y="705" />
            </Array>
          </mxGeometry>
        </mxCell>
        <mxCell id="jeF95xI8hNJmxF6Zv-FG-76" value="" style="endArrow=none;html=1;rounded=0;exitX=1;exitY=0.5;exitDx=0;exitDy=0;entryX=0.5;entryY=1;entryDx=0;entryDy=0;" parent="1" source="jeF95xI8hNJmxF6Zv-FG-74" target="jeF95xI8hNJmxF6Zv-FG-15" edge="1">
          <mxGeometry width="50" height="50" relative="1" as="geometry">
            <mxPoint x="400" y="470" as="sourcePoint" />
            <mxPoint x="450" y="420" as="targetPoint" />
            <Array as="points">
              <mxPoint x="605" y="705" />
            </Array>
          </mxGeometry>
        </mxCell>
        <mxCell id="jeF95xI8hNJmxF6Zv-FG-77" value="Gramont Cave - 2nd Basement" style="whiteSpace=wrap;html=1;aspect=fixed;align=center;horizontal=1;" parent="1" vertex="1">
          <mxGeometry x="480" y="790" width="90" height="90" as="geometry" />
        </mxCell>
        <mxCell id="jeF95xI8hNJmxF6Zv-FG-78" value="Gramont Cave - 3rd Basement" style="whiteSpace=wrap;html=1;aspect=fixed;align=center;horizontal=1;" parent="1" vertex="1">
          <mxGeometry x="480" y="920" width="90" height="90" as="geometry" />
        </mxCell>
        <mxCell id="jeF95xI8hNJmxF6Zv-FG-79" value="" style="endArrow=none;html=1;rounded=0;exitX=0.5;exitY=0;exitDx=0;exitDy=0;entryX=0.5;entryY=1;entryDx=0;entryDy=0;" parent="1" source="jeF95xI8hNJmxF6Zv-FG-77" target="jeF95xI8hNJmxF6Zv-FG-74" edge="1">
          <mxGeometry width="50" height="50" relative="1" as="geometry">
            <mxPoint x="440" y="700" as="sourcePoint" />
            <mxPoint x="490" y="650" as="targetPoint" />
          </mxGeometry>
        </mxCell>
        <mxCell id="jeF95xI8hNJmxF6Zv-FG-80" value="" style="endArrow=none;html=1;rounded=0;exitX=0.5;exitY=0;exitDx=0;exitDy=0;entryX=0.5;entryY=1;entryDx=0;entryDy=0;" parent="1" source="jeF95xI8hNJmxF6Zv-FG-78" target="jeF95xI8hNJmxF6Zv-FG-77" edge="1">
          <mxGeometry width="50" height="50" relative="1" as="geometry">
            <mxPoint x="440" y="700" as="sourcePoint" />
            <mxPoint x="490" y="650" as="targetPoint" />
          </mxGeometry>
        </mxCell>
        <mxCell id="jeF95xI8hNJmxF6Zv-FG-81" value="Scorched Lands - North" style="whiteSpace=wrap;html=1;aspect=fixed;align=center;horizontal=1;" parent="1" vertex="1">
          <mxGeometry x="-800" y="420" width="90" height="90" as="geometry" />
        </mxCell>
        <mxCell id="jeF95xI8hNJmxF6Zv-FG-82" value="" style="endArrow=none;html=1;rounded=0;exitX=1;exitY=0.5;exitDx=0;exitDy=0;entryX=0.5;entryY=1;entryDx=0;entryDy=0;" parent="1" source="jeF95xI8hNJmxF6Zv-FG-81" target="jeF95xI8hNJmxF6Zv-FG-43" edge="1">
          <mxGeometry width="50" height="50" relative="1" as="geometry">
            <mxPoint x="-400" y="590" as="sourcePoint" />
            <mxPoint x="-350" y="540" as="targetPoint" />
            <Array as="points">
              <mxPoint x="-605" y="465" />
            </Array>
          </mxGeometry>
        </mxCell>
        <mxCell id="jeF95xI8hNJmxF6Zv-FG-83" value="Scorched Lands - Center" style="whiteSpace=wrap;html=1;aspect=fixed;align=center;horizontal=1;" parent="1" vertex="1">
          <mxGeometry x="-800" y="570" width="90" height="90" as="geometry" />
        </mxCell>
        <mxCell id="jeF95xI8hNJmxF6Zv-FG-84" value="" style="endArrow=none;html=1;rounded=0;exitX=0.5;exitY=1;exitDx=0;exitDy=0;entryX=0.5;entryY=0;entryDx=0;entryDy=0;" parent="1" source="jeF95xI8hNJmxF6Zv-FG-81" target="jeF95xI8hNJmxF6Zv-FG-83" edge="1">
          <mxGeometry width="50" height="50" relative="1" as="geometry">
            <mxPoint x="-400" y="590" as="sourcePoint" />
            <mxPoint x="-350" y="540" as="targetPoint" />
          </mxGeometry>
        </mxCell>
        <mxCell id="jeF95xI8hNJmxF6Zv-FG-85" value="Scorched Lands - West" style="whiteSpace=wrap;html=1;aspect=fixed;align=center;horizontal=1;" parent="1" vertex="1">
          <mxGeometry x="-980" y="570" width="90" height="90" as="geometry" />
        </mxCell>
        <mxCell id="jeF95xI8hNJmxF6Zv-FG-86" value="Scorched Lands - East" style="whiteSpace=wrap;html=1;aspect=fixed;align=center;horizontal=1;" parent="1" vertex="1">
          <mxGeometry x="-640" y="570" width="90" height="90" as="geometry" />
        </mxCell>
        <mxCell id="jeF95xI8hNJmxF6Zv-FG-87" value="Scorched Lands - South" style="whiteSpace=wrap;html=1;aspect=fixed;align=center;horizontal=1;" parent="1" vertex="1">
          <mxGeometry x="-800" y="730" width="90" height="90" as="geometry" />
        </mxCell>
        <mxCell id="jeF95xI8hNJmxF6Zv-FG-88" value="" style="endArrow=none;html=1;rounded=0;exitX=1;exitY=0.5;exitDx=0;exitDy=0;entryX=0;entryY=0.5;entryDx=0;entryDy=0;" parent="1" source="jeF95xI8hNJmxF6Zv-FG-85" target="jeF95xI8hNJmxF6Zv-FG-83" edge="1">
          <mxGeometry width="50" height="50" relative="1" as="geometry">
            <mxPoint x="-400" y="590" as="sourcePoint" />
            <mxPoint x="-350" y="540" as="targetPoint" />
          </mxGeometry>
        </mxCell>
        <mxCell id="jeF95xI8hNJmxF6Zv-FG-89" value="" style="endArrow=none;html=1;rounded=0;exitX=1;exitY=0.5;exitDx=0;exitDy=0;entryX=0;entryY=0.5;entryDx=0;entryDy=0;" parent="1" source="jeF95xI8hNJmxF6Zv-FG-83" target="jeF95xI8hNJmxF6Zv-FG-86" edge="1">
          <mxGeometry width="50" height="50" relative="1" as="geometry">
            <mxPoint x="-400" y="590" as="sourcePoint" />
            <mxPoint x="-350" y="540" as="targetPoint" />
          </mxGeometry>
        </mxCell>
        <mxCell id="jeF95xI8hNJmxF6Zv-FG-90" value="" style="endArrow=none;html=1;rounded=0;exitX=0.5;exitY=1;exitDx=0;exitDy=0;entryX=0.5;entryY=0;entryDx=0;entryDy=0;" parent="1" source="jeF95xI8hNJmxF6Zv-FG-83" target="jeF95xI8hNJmxF6Zv-FG-87" edge="1">
          <mxGeometry width="50" height="50" relative="1" as="geometry">
            <mxPoint x="-400" y="590" as="sourcePoint" />
            <mxPoint x="-350" y="540" as="targetPoint" />
          </mxGeometry>
        </mxCell>
        <mxCell id="jeF95xI8hNJmxF6Zv-FG-91" value="Castle of Lord Kobra" style="whiteSpace=wrap;html=1;aspect=fixed;align=center;horizontal=1;" parent="1" vertex="1">
          <mxGeometry x="-640" y="730" width="90" height="90" as="geometry" />
        </mxCell>
        <mxCell id="jeF95xI8hNJmxF6Zv-FG-92" value="" style="endArrow=none;html=1;rounded=0;exitX=0.5;exitY=1;exitDx=0;exitDy=0;entryX=0.5;entryY=0;entryDx=0;entryDy=0;" parent="1" source="jeF95xI8hNJmxF6Zv-FG-86" target="jeF95xI8hNJmxF6Zv-FG-91" edge="1">
          <mxGeometry width="50" height="50" relative="1" as="geometry">
            <mxPoint x="-400" y="590" as="sourcePoint" />
            <mxPoint x="-350" y="540" as="targetPoint" />
          </mxGeometry>
        </mxCell>
        <mxCell id="jeF95xI8hNJmxF6Zv-FG-93" value="Sur&#39;Than Road" style="whiteSpace=wrap;html=1;aspect=fixed;align=center;horizontal=1;" parent="1" vertex="1">
          <mxGeometry x="-800" y="880" width="90" height="90" as="geometry" />
        </mxCell>
        <mxCell id="jeF95xI8hNJmxF6Zv-FG-94" value="" style="endArrow=none;html=1;rounded=0;exitX=0.5;exitY=1;exitDx=0;exitDy=0;entryX=0.5;entryY=0;entryDx=0;entryDy=0;" parent="1" source="jeF95xI8hNJmxF6Zv-FG-87" target="jeF95xI8hNJmxF6Zv-FG-93" edge="1">
          <mxGeometry width="50" height="50" relative="1" as="geometry">
            <mxPoint x="-400" y="590" as="sourcePoint" />
            <mxPoint x="-350" y="540" as="targetPoint" />
          </mxGeometry>
        </mxCell>
        <mxCell id="jeF95xI8hNJmxF6Zv-FG-95" value="Sur&#39;Than" style="whiteSpace=wrap;html=1;aspect=fixed;align=center;horizontal=1;" parent="1" vertex="1">
          <mxGeometry x="-800" y="1030" width="90" height="90" as="geometry" />
        </mxCell>
        <mxCell id="jeF95xI8hNJmxF6Zv-FG-96" value="" style="endArrow=none;html=1;rounded=0;exitX=0.5;exitY=1;exitDx=0;exitDy=0;entryX=0.5;entryY=0;entryDx=0;entryDy=0;" parent="1" source="jeF95xI8hNJmxF6Zv-FG-93" target="jeF95xI8hNJmxF6Zv-FG-95" edge="1">
          <mxGeometry width="50" height="50" relative="1" as="geometry">
            <mxPoint x="-290" y="890" as="sourcePoint" />
            <mxPoint x="-240" y="840" as="targetPoint" />
          </mxGeometry>
        </mxCell>
        <mxCell id="jeF95xI8hNJmxF6Zv-FG-97" value="Sur&#39;Than Southern Territorries" style="whiteSpace=wrap;html=1;aspect=fixed;align=center;horizontal=1;" parent="1" vertex="1">
          <mxGeometry x="-800" y="1180" width="90" height="90" as="geometry" />
        </mxCell>
        <mxCell id="jeF95xI8hNJmxF6Zv-FG-98" value="" style="endArrow=none;html=1;rounded=0;exitX=0.5;exitY=1;exitDx=0;exitDy=0;entryX=0.5;entryY=0;entryDx=0;entryDy=0;" parent="1" source="jeF95xI8hNJmxF6Zv-FG-95" target="jeF95xI8hNJmxF6Zv-FG-97" edge="1">
          <mxGeometry width="50" height="50" relative="1" as="geometry">
            <mxPoint x="-290" y="890" as="sourcePoint" />
            <mxPoint x="-240" y="840" as="targetPoint" />
          </mxGeometry>
        </mxCell>
        <mxCell id="jeF95xI8hNJmxF6Zv-FG-99" value="White Coast" style="whiteSpace=wrap;html=1;aspect=fixed;align=center;horizontal=1;" parent="1" vertex="1">
          <mxGeometry x="-800" y="1330" width="90" height="90" as="geometry" />
        </mxCell>
        <mxCell id="jeF95xI8hNJmxF6Zv-FG-100" value="" style="endArrow=none;html=1;rounded=0;exitX=0.5;exitY=1;exitDx=0;exitDy=0;entryX=0.5;entryY=0;entryDx=0;entryDy=0;" parent="1" source="jeF95xI8hNJmxF6Zv-FG-97" target="jeF95xI8hNJmxF6Zv-FG-99" edge="1">
          <mxGeometry width="50" height="50" relative="1" as="geometry">
            <mxPoint x="-290" y="1080" as="sourcePoint" />
            <mxPoint x="-240" y="1030" as="targetPoint" />
          </mxGeometry>
        </mxCell>
        <mxCell id="jeF95xI8hNJmxF6Zv-FG-101" value="Sur&#39;Than Eastern&lt;div&gt;Territorries&lt;/div&gt;" style="whiteSpace=wrap;html=1;aspect=fixed;align=center;horizontal=1;" parent="1" vertex="1">
          <mxGeometry x="-620" y="1030" width="90" height="90" as="geometry" />
        </mxCell>
        <mxCell id="jeF95xI8hNJmxF6Zv-FG-102" value="" style="endArrow=none;html=1;rounded=0;exitX=1;exitY=0.5;exitDx=0;exitDy=0;entryX=0;entryY=0.5;entryDx=0;entryDy=0;" parent="1" source="jeF95xI8hNJmxF6Zv-FG-95" target="jeF95xI8hNJmxF6Zv-FG-101" edge="1">
          <mxGeometry width="50" height="50" relative="1" as="geometry">
            <mxPoint x="-290" y="1080" as="sourcePoint" />
            <mxPoint x="-240" y="1030" as="targetPoint" />
          </mxGeometry>
        </mxCell>
        <mxCell id="jeF95xI8hNJmxF6Zv-FG-103" value="Sur&#39;Than Oasis" style="whiteSpace=wrap;html=1;aspect=fixed;align=center;horizontal=1;" parent="1" vertex="1">
          <mxGeometry x="-440" y="1030" width="90" height="90" as="geometry" />
        </mxCell>
        <mxCell id="jeF95xI8hNJmxF6Zv-FG-104" value="" style="endArrow=none;html=1;rounded=0;exitX=1;exitY=0.5;exitDx=0;exitDy=0;entryX=0;entryY=0.5;entryDx=0;entryDy=0;" parent="1" source="jeF95xI8hNJmxF6Zv-FG-101" target="jeF95xI8hNJmxF6Zv-FG-103" edge="1">
          <mxGeometry width="50" height="50" relative="1" as="geometry">
            <mxPoint x="-290" y="1080" as="sourcePoint" />
            <mxPoint x="-240" y="1030" as="targetPoint" />
          </mxGeometry>
        </mxCell>
        <mxCell id="jeF95xI8hNJmxF6Zv-FG-105" value="Old Kingdom Fortress - Countryside" style="whiteSpace=wrap;html=1;aspect=fixed;align=center;horizontal=1;" parent="1" vertex="1">
          <mxGeometry x="-290" y="1030" width="90" height="90" as="geometry" />
        </mxCell>
        <mxCell id="jeF95xI8hNJmxF6Zv-FG-106" value="Old Kingdom Fortress" style="whiteSpace=wrap;html=1;aspect=fixed;align=center;horizontal=1;" parent="1" vertex="1">
          <mxGeometry x="-290" y="880" width="90" height="90" as="geometry" />
        </mxCell>
        <mxCell id="jeF95xI8hNJmxF6Zv-FG-107" value="" style="endArrow=none;html=1;rounded=0;exitX=1;exitY=0.5;exitDx=0;exitDy=0;entryX=0;entryY=0.5;entryDx=0;entryDy=0;" parent="1" source="jeF95xI8hNJmxF6Zv-FG-103" target="jeF95xI8hNJmxF6Zv-FG-105" edge="1">
          <mxGeometry width="50" height="50" relative="1" as="geometry">
            <mxPoint x="-290" y="1080" as="sourcePoint" />
            <mxPoint x="-240" y="1030" as="targetPoint" />
          </mxGeometry>
        </mxCell>
        <mxCell id="jeF95xI8hNJmxF6Zv-FG-108" value="" style="endArrow=none;html=1;rounded=0;exitX=0.5;exitY=1;exitDx=0;exitDy=0;entryX=0.5;entryY=0;entryDx=0;entryDy=0;" parent="1" source="jeF95xI8hNJmxF6Zv-FG-106" target="jeF95xI8hNJmxF6Zv-FG-105" edge="1">
          <mxGeometry width="50" height="50" relative="1" as="geometry">
            <mxPoint x="-290" y="1080" as="sourcePoint" />
            <mxPoint x="-240" y="1030" as="targetPoint" />
          </mxGeometry>
        </mxCell>
        <mxCell id="jeF95xI8hNJmxF6Zv-FG-109" value="Cliffs of Walaska" style="whiteSpace=wrap;html=1;aspect=fixed;align=center;horizontal=1;" parent="1" vertex="1">
          <mxGeometry x="1241" y="100" width="90" height="90" as="geometry" />
        </mxCell>
        <mxCell id="jeF95xI8hNJmxF6Zv-FG-110" value="" style="endArrow=none;html=1;rounded=0;exitX=1;exitY=0.5;exitDx=0;exitDy=0;entryX=0;entryY=0.5;entryDx=0;entryDy=0;" parent="1" source="jeF95xI8hNJmxF6Zv-FG-50" target="jeF95xI8hNJmxF6Zv-FG-109" edge="1">
          <mxGeometry width="50" height="50" relative="1" as="geometry">
            <mxPoint x="990" y="560" as="sourcePoint" />
            <mxPoint x="1240" y="145" as="targetPoint" />
          </mxGeometry>
        </mxCell>
        <mxCell id="jeF95xI8hNJmxF6Zv-FG-111" value="The Kuma River - North" style="whiteSpace=wrap;html=1;aspect=fixed;align=center;horizontal=1;" parent="1" vertex="1">
          <mxGeometry x="1400" y="100" width="90" height="90" as="geometry" />
        </mxCell>
        <mxCell id="jeF95xI8hNJmxF6Zv-FG-112" value="" style="endArrow=none;html=1;rounded=0;exitX=1;exitY=0.5;exitDx=0;exitDy=0;entryX=0;entryY=0.5;entryDx=0;entryDy=0;" parent="1" source="jeF95xI8hNJmxF6Zv-FG-109" target="jeF95xI8hNJmxF6Zv-FG-111" edge="1">
          <mxGeometry width="50" height="50" relative="1" as="geometry">
            <mxPoint x="1290" y="280" as="sourcePoint" />
            <mxPoint x="1340" y="230" as="targetPoint" />
          </mxGeometry>
        </mxCell>
        <mxCell id="jeF95xI8hNJmxF6Zv-FG-113" value="The Kuma River - Blessed shore" style="whiteSpace=wrap;html=1;aspect=fixed;align=center;horizontal=1;" parent="1" vertex="1">
          <mxGeometry x="1400" y="250" width="90" height="90" as="geometry" />
        </mxCell>
        <mxCell id="jeF95xI8hNJmxF6Zv-FG-114" value="The Kuma River - South" style="whiteSpace=wrap;html=1;aspect=fixed;align=center;horizontal=1;" parent="1" vertex="1">
          <mxGeometry x="1400" y="405" width="90" height="90" as="geometry" />
        </mxCell>
        <mxCell id="jeF95xI8hNJmxF6Zv-FG-115" value="The Kuma River - East" style="whiteSpace=wrap;html=1;aspect=fixed;align=center;horizontal=1;" parent="1" vertex="1">
          <mxGeometry x="1550" y="250" width="90" height="90" as="geometry" />
        </mxCell>
        <mxCell id="jeF95xI8hNJmxF6Zv-FG-116" value="" style="endArrow=none;html=1;rounded=0;exitX=0.5;exitY=0;exitDx=0;exitDy=0;entryX=0.5;entryY=1;entryDx=0;entryDy=0;" parent="1" source="jeF95xI8hNJmxF6Zv-FG-113" target="jeF95xI8hNJmxF6Zv-FG-111" edge="1">
          <mxGeometry width="50" height="50" relative="1" as="geometry">
            <mxPoint x="1290" y="280" as="sourcePoint" />
            <mxPoint x="1340" y="230" as="targetPoint" />
          </mxGeometry>
        </mxCell>
        <mxCell id="jeF95xI8hNJmxF6Zv-FG-117" value="" style="endArrow=none;html=1;rounded=0;exitX=0.5;exitY=0;exitDx=0;exitDy=0;entryX=0.5;entryY=1;entryDx=0;entryDy=0;" parent="1" source="jeF95xI8hNJmxF6Zv-FG-114" target="jeF95xI8hNJmxF6Zv-FG-113" edge="1">
          <mxGeometry width="50" height="50" relative="1" as="geometry">
            <mxPoint x="1290" y="280" as="sourcePoint" />
            <mxPoint x="1340" y="230" as="targetPoint" />
          </mxGeometry>
        </mxCell>
        <mxCell id="jeF95xI8hNJmxF6Zv-FG-118" value="" style="endArrow=none;html=1;rounded=0;exitX=0;exitY=0.5;exitDx=0;exitDy=0;entryX=1;entryY=0.5;entryDx=0;entryDy=0;" parent="1" source="jeF95xI8hNJmxF6Zv-FG-115" target="jeF95xI8hNJmxF6Zv-FG-113" edge="1">
          <mxGeometry width="50" height="50" relative="1" as="geometry">
            <mxPoint x="1290" y="280" as="sourcePoint" />
            <mxPoint x="1340" y="230" as="targetPoint" />
          </mxGeometry>
        </mxCell>
        <mxCell id="jeF95xI8hNJmxF6Zv-FG-119" value="The Red Tower" style="whiteSpace=wrap;html=1;aspect=fixed;align=center;horizontal=1;" parent="1" vertex="1">
          <mxGeometry x="1241" y="405" width="90" height="90" as="geometry" />
        </mxCell>
        <mxCell id="jeF95xI8hNJmxF6Zv-FG-120" value="" style="endArrow=none;html=1;rounded=0;exitX=1;exitY=0.5;exitDx=0;exitDy=0;entryX=0;entryY=0.5;entryDx=0;entryDy=0;" parent="1" source="jeF95xI8hNJmxF6Zv-FG-119" target="jeF95xI8hNJmxF6Zv-FG-114" edge="1">
          <mxGeometry width="50" height="50" relative="1" as="geometry">
            <mxPoint x="1290" y="280" as="sourcePoint" />
            <mxPoint x="1340" y="230" as="targetPoint" />
          </mxGeometry>
        </mxCell>
        <mxCell id="jeF95xI8hNJmxF6Zv-FG-121" value="Granit Tower" style="whiteSpace=wrap;html=1;aspect=fixed;align=center;horizontal=1;" parent="1" vertex="1">
          <mxGeometry x="1400" y="-80" width="90" height="90" as="geometry" />
        </mxCell>
        <mxCell id="jeF95xI8hNJmxF6Zv-FG-123" value="" style="endArrow=none;html=1;rounded=0;exitX=0.5;exitY=1;exitDx=0;exitDy=0;entryX=0.5;entryY=0;entryDx=0;entryDy=0;" parent="1" source="jeF95xI8hNJmxF6Zv-FG-121" target="jeF95xI8hNJmxF6Zv-FG-111" edge="1">
          <mxGeometry width="50" height="50" relative="1" as="geometry">
            <mxPoint x="1290" y="280" as="sourcePoint" />
            <mxPoint x="1340" y="230" as="targetPoint" />
          </mxGeometry>
        </mxCell>
        <mxCell id="jeF95xI8hNJmxF6Zv-FG-124" value="Easthaven Road" style="whiteSpace=wrap;html=1;aspect=fixed;align=center;horizontal=1;" parent="1" vertex="1">
          <mxGeometry x="1550" y="100" width="90" height="90" as="geometry" />
        </mxCell>
        <mxCell id="jeF95xI8hNJmxF6Zv-FG-125" value="Easthaven Forest" style="whiteSpace=wrap;html=1;aspect=fixed;align=center;horizontal=1;" parent="1" vertex="1">
          <mxGeometry x="1700" y="100" width="90" height="90" as="geometry" />
        </mxCell>
        <mxCell id="jeF95xI8hNJmxF6Zv-FG-126" value="Easthaven Village" style="whiteSpace=wrap;html=1;aspect=fixed;align=center;horizontal=1;" parent="1" vertex="1">
          <mxGeometry x="1850" y="100" width="90" height="90" as="geometry" />
        </mxCell>
        <mxCell id="jeF95xI8hNJmxF6Zv-FG-127" value="" style="endArrow=none;html=1;rounded=0;exitX=1;exitY=0.5;exitDx=0;exitDy=0;entryX=0;entryY=0.5;entryDx=0;entryDy=0;" parent="1" source="jeF95xI8hNJmxF6Zv-FG-111" target="jeF95xI8hNJmxF6Zv-FG-124" edge="1">
          <mxGeometry width="50" height="50" relative="1" as="geometry">
            <mxPoint x="1290" y="280" as="sourcePoint" />
            <mxPoint x="1340" y="230" as="targetPoint" />
          </mxGeometry>
        </mxCell>
        <mxCell id="jeF95xI8hNJmxF6Zv-FG-128" value="" style="endArrow=none;html=1;rounded=0;exitX=1;exitY=0.5;exitDx=0;exitDy=0;entryX=0;entryY=0.5;entryDx=0;entryDy=0;" parent="1" source="jeF95xI8hNJmxF6Zv-FG-124" target="jeF95xI8hNJmxF6Zv-FG-125" edge="1">
          <mxGeometry width="50" height="50" relative="1" as="geometry">
            <mxPoint x="1290" y="280" as="sourcePoint" />
            <mxPoint x="1340" y="230" as="targetPoint" />
          </mxGeometry>
        </mxCell>
        <mxCell id="jeF95xI8hNJmxF6Zv-FG-132" value="" style="endArrow=none;html=1;rounded=0;exitX=1;exitY=0.5;exitDx=0;exitDy=0;entryX=0;entryY=0.5;entryDx=0;entryDy=0;" parent="1" source="jeF95xI8hNJmxF6Zv-FG-125" target="jeF95xI8hNJmxF6Zv-FG-126" edge="1">
          <mxGeometry width="50" height="50" relative="1" as="geometry">
            <mxPoint x="1290" y="280" as="sourcePoint" />
            <mxPoint x="1340" y="230" as="targetPoint" />
          </mxGeometry>
        </mxCell>
        <mxCell id="jeF95xI8hNJmxF6Zv-FG-133" value="Eizbern Region - West" style="whiteSpace=wrap;html=1;aspect=fixed;align=center;horizontal=1;" parent="1" vertex="1">
          <mxGeometry x="1700" y="405" width="90" height="90" as="geometry" />
        </mxCell>
        <mxCell id="jeF95xI8hNJmxF6Zv-FG-134" value="" style="endArrow=none;html=1;rounded=0;exitX=1;exitY=0.5;exitDx=0;exitDy=0;entryX=0;entryY=0.5;entryDx=0;entryDy=0;" parent="1" source="jeF95xI8hNJmxF6Zv-FG-114" target="jeF95xI8hNJmxF6Zv-FG-133" edge="1">
          <mxGeometry width="50" height="50" relative="1" as="geometry">
            <mxPoint x="1290" y="280" as="sourcePoint" />
            <mxPoint x="1340" y="230" as="targetPoint" />
          </mxGeometry>
        </mxCell>
        <mxCell id="jeF95xI8hNJmxF6Zv-FG-135" value="" style="endArrow=none;html=1;rounded=0;exitX=1;exitY=0.5;exitDx=0;exitDy=0;entryX=0.5;entryY=0;entryDx=0;entryDy=0;" parent="1" source="jeF95xI8hNJmxF6Zv-FG-115" target="jeF95xI8hNJmxF6Zv-FG-133" edge="1">
          <mxGeometry width="50" height="50" relative="1" as="geometry">
            <mxPoint x="1290" y="280" as="sourcePoint" />
            <mxPoint x="1340" y="230" as="targetPoint" />
            <Array as="points">
              <mxPoint x="1745" y="295" />
            </Array>
          </mxGeometry>
        </mxCell>
        <mxCell id="jeF95xI8hNJmxF6Zv-FG-136" value="Eizbern Village" style="whiteSpace=wrap;html=1;aspect=fixed;align=center;horizontal=1;" parent="1" vertex="1">
          <mxGeometry x="1850" y="405" width="90" height="90" as="geometry" />
        </mxCell>
        <mxCell id="jeF95xI8hNJmxF6Zv-FG-137" value="Eizbern Region - North" style="whiteSpace=wrap;html=1;aspect=fixed;align=center;horizontal=1;" parent="1" vertex="1">
          <mxGeometry x="1850" y="250" width="90" height="90" as="geometry" />
        </mxCell>
        <mxCell id="jeF95xI8hNJmxF6Zv-FG-138" value="Eizbern Region - East" style="whiteSpace=wrap;html=1;aspect=fixed;align=center;horizontal=1;" parent="1" vertex="1">
          <mxGeometry x="2020" y="405" width="90" height="90" as="geometry" />
        </mxCell>
        <mxCell id="jeF95xI8hNJmxF6Zv-FG-139" value="Eizbern Region - South" style="whiteSpace=wrap;html=1;aspect=fixed;align=center;horizontal=1;" parent="1" vertex="1">
          <mxGeometry x="1850" y="560" width="90" height="90" as="geometry" />
        </mxCell>
        <mxCell id="jeF95xI8hNJmxF6Zv-FG-140" value="" style="endArrow=none;html=1;rounded=0;exitX=1;exitY=0.5;exitDx=0;exitDy=0;entryX=0;entryY=0.5;entryDx=0;entryDy=0;" parent="1" source="jeF95xI8hNJmxF6Zv-FG-133" target="jeF95xI8hNJmxF6Zv-FG-136" edge="1">
          <mxGeometry width="50" height="50" relative="1" as="geometry">
            <mxPoint x="1290" y="280" as="sourcePoint" />
            <mxPoint x="1340" y="230" as="targetPoint" />
          </mxGeometry>
        </mxCell>
        <mxCell id="jeF95xI8hNJmxF6Zv-FG-141" value="" style="endArrow=none;html=1;rounded=0;exitX=1;exitY=0.5;exitDx=0;exitDy=0;entryX=0;entryY=0.5;entryDx=0;entryDy=0;" parent="1" source="jeF95xI8hNJmxF6Zv-FG-136" target="jeF95xI8hNJmxF6Zv-FG-138" edge="1">
          <mxGeometry width="50" height="50" relative="1" as="geometry">
            <mxPoint x="1290" y="280" as="sourcePoint" />
            <mxPoint x="1340" y="230" as="targetPoint" />
          </mxGeometry>
        </mxCell>
        <mxCell id="jeF95xI8hNJmxF6Zv-FG-142" value="" style="endArrow=none;html=1;rounded=0;exitX=0.5;exitY=1;exitDx=0;exitDy=0;entryX=0.5;entryY=0;entryDx=0;entryDy=0;" parent="1" source="jeF95xI8hNJmxF6Zv-FG-137" target="jeF95xI8hNJmxF6Zv-FG-136" edge="1">
          <mxGeometry width="50" height="50" relative="1" as="geometry">
            <mxPoint x="1290" y="280" as="sourcePoint" />
            <mxPoint x="1340" y="230" as="targetPoint" />
          </mxGeometry>
        </mxCell>
        <mxCell id="jeF95xI8hNJmxF6Zv-FG-143" value="" style="endArrow=none;html=1;rounded=0;exitX=0.5;exitY=1;exitDx=0;exitDy=0;entryX=0.5;entryY=0;entryDx=0;entryDy=0;" parent="1" source="jeF95xI8hNJmxF6Zv-FG-136" target="jeF95xI8hNJmxF6Zv-FG-139" edge="1">
          <mxGeometry width="50" height="50" relative="1" as="geometry">
            <mxPoint x="1290" y="280" as="sourcePoint" />
            <mxPoint x="1340" y="230" as="targetPoint" />
          </mxGeometry>
        </mxCell>
        <mxCell id="jeF95xI8hNJmxF6Zv-FG-144" value="Vulkan Region - Rocky Mountains" style="whiteSpace=wrap;html=1;aspect=fixed;align=center;horizontal=1;" parent="1" vertex="1">
          <mxGeometry x="1850" y="720" width="90" height="90" as="geometry" />
        </mxCell>
        <mxCell id="jeF95xI8hNJmxF6Zv-FG-145" value="Vulkan Region - Red Peaks" style="whiteSpace=wrap;html=1;aspect=fixed;align=center;horizontal=1;" parent="1" vertex="1">
          <mxGeometry x="1670" y="720" width="90" height="90" as="geometry" />
        </mxCell>
        <mxCell id="jeF95xI8hNJmxF6Zv-FG-146" value="" style="endArrow=none;html=1;rounded=0;exitX=0.5;exitY=1;exitDx=0;exitDy=0;entryX=0.5;entryY=0;entryDx=0;entryDy=0;" parent="1" source="jeF95xI8hNJmxF6Zv-FG-139" target="jeF95xI8hNJmxF6Zv-FG-144" edge="1">
          <mxGeometry width="50" height="50" relative="1" as="geometry">
            <mxPoint x="1370" y="460" as="sourcePoint" />
            <mxPoint x="1420" y="410" as="targetPoint" />
          </mxGeometry>
        </mxCell>
        <mxCell id="jeF95xI8hNJmxF6Zv-FG-147" value="" style="endArrow=none;html=1;rounded=0;exitX=0;exitY=0.5;exitDx=0;exitDy=0;entryX=1;entryY=0.5;entryDx=0;entryDy=0;" parent="1" source="jeF95xI8hNJmxF6Zv-FG-144" target="jeF95xI8hNJmxF6Zv-FG-145" edge="1">
          <mxGeometry width="50" height="50" relative="1" as="geometry">
            <mxPoint x="1370" y="460" as="sourcePoint" />
            <mxPoint x="1420" y="410" as="targetPoint" />
          </mxGeometry>
        </mxCell>
        <mxCell id="jeF95xI8hNJmxF6Zv-FG-148" value="Vulkan Region - Rocky - Green Peaks" style="whiteSpace=wrap;html=1;aspect=fixed;align=center;horizontal=1;" parent="1" vertex="1">
          <mxGeometry x="2023" y="720" width="90" height="90" as="geometry" />
        </mxCell>
        <mxCell id="jeF95xI8hNJmxF6Zv-FG-149" value="" style="endArrow=none;html=1;rounded=0;exitX=1;exitY=0.5;exitDx=0;exitDy=0;entryX=0;entryY=0.5;entryDx=0;entryDy=0;" parent="1" source="jeF95xI8hNJmxF6Zv-FG-144" target="jeF95xI8hNJmxF6Zv-FG-148" edge="1">
          <mxGeometry width="50" height="50" relative="1" as="geometry">
            <mxPoint x="1370" y="460" as="sourcePoint" />
            <mxPoint x="1420" y="410" as="targetPoint" />
          </mxGeometry>
        </mxCell>
        <mxCell id="jeF95xI8hNJmxF6Zv-FG-150" value="Old Kingdom Fortress - Western Wasteland" style="whiteSpace=wrap;html=1;aspect=fixed;align=center;horizontal=1;" parent="1" vertex="1">
          <mxGeometry x="-110" y="1030" width="90" height="90" as="geometry" />
        </mxCell>
        <mxCell id="jeF95xI8hNJmxF6Zv-FG-151" value="" style="endArrow=none;html=1;rounded=0;exitX=1;exitY=0.5;exitDx=0;exitDy=0;entryX=0;entryY=0.5;entryDx=0;entryDy=0;" parent="1" source="jeF95xI8hNJmxF6Zv-FG-105" target="jeF95xI8hNJmxF6Zv-FG-150" edge="1">
          <mxGeometry width="50" height="50" relative="1" as="geometry">
            <mxPoint x="120" y="1090" as="sourcePoint" />
            <mxPoint x="170" y="1040" as="targetPoint" />
          </mxGeometry>
        </mxCell>
        <mxCell id="jeF95xI8hNJmxF6Zv-FG-152" value="Old Kingdom Fortress - Eastern Wasteland" style="whiteSpace=wrap;html=1;aspect=fixed;align=center;horizontal=1;" parent="1" vertex="1">
          <mxGeometry x="90" y="1030" width="90" height="90" as="geometry" />
        </mxCell>
        <mxCell id="jeF95xI8hNJmxF6Zv-FG-153" value="" style="endArrow=none;html=1;rounded=0;exitX=1;exitY=0.5;exitDx=0;exitDy=0;entryX=0;entryY=0.5;entryDx=0;entryDy=0;" parent="1" source="jeF95xI8hNJmxF6Zv-FG-150" target="jeF95xI8hNJmxF6Zv-FG-152" edge="1">
          <mxGeometry width="50" height="50" relative="1" as="geometry">
            <mxPoint x="120" y="1090" as="sourcePoint" />
            <mxPoint x="170" y="1040" as="targetPoint" />
          </mxGeometry>
        </mxCell>
        <mxCell id="jeF95xI8hNJmxF6Zv-FG-154" value="Vulkan Region - Ember Woods" style="whiteSpace=wrap;html=1;aspect=fixed;align=center;horizontal=1;" parent="1" vertex="1">
          <mxGeometry x="1850" y="870" width="90" height="90" as="geometry" />
        </mxCell>
        <mxCell id="jeF95xI8hNJmxF6Zv-FG-155" value="" style="endArrow=none;html=1;rounded=0;exitX=0.5;exitY=1;exitDx=0;exitDy=0;entryX=0.5;entryY=0;entryDx=0;entryDy=0;" parent="1" source="jeF95xI8hNJmxF6Zv-FG-144" target="jeF95xI8hNJmxF6Zv-FG-154" edge="1">
          <mxGeometry width="50" height="50" relative="1" as="geometry">
            <mxPoint x="1270" y="1040" as="sourcePoint" />
            <mxPoint x="1320" y="990" as="targetPoint" />
          </mxGeometry>
        </mxCell>
        <mxCell id="jeF95xI8hNJmxF6Zv-FG-156" value="" style="endArrow=none;html=1;rounded=0;exitX=0;exitY=0.5;exitDx=0;exitDy=0;entryX=1;entryY=0.5;entryDx=0;entryDy=0;" parent="1" source="jeF95xI8hNJmxF6Zv-FG-154" target="jeF95xI8hNJmxF6Zv-FG-152" edge="1">
          <mxGeometry width="50" height="50" relative="1" as="geometry">
            <mxPoint x="1270" y="1040" as="sourcePoint" />
            <mxPoint x="1320" y="990" as="targetPoint" />
          </mxGeometry>
        </mxCell>
        <mxCell id="jeF95xI8hNJmxF6Zv-FG-157" value="Vulkan Village" style="whiteSpace=wrap;html=1;aspect=fixed;align=center;horizontal=1;" parent="1" vertex="1">
          <mxGeometry x="2180" y="590" width="90" height="90" as="geometry" />
        </mxCell>
        <mxCell id="jeF95xI8hNJmxF6Zv-FG-158" value="Vulkan Region - Rocky - Sea Fangs" style="whiteSpace=wrap;html=1;aspect=fixed;align=center;horizontal=1;" parent="1" vertex="1">
          <mxGeometry x="2180" y="720" width="90" height="90" as="geometry" />
        </mxCell>
        <mxCell id="jeF95xI8hNJmxF6Zv-FG-159" value="" style="endArrow=none;html=1;rounded=0;exitX=0.5;exitY=0;exitDx=0;exitDy=0;entryX=0;entryY=0.5;entryDx=0;entryDy=0;" parent="1" source="jeF95xI8hNJmxF6Zv-FG-148" target="jeF95xI8hNJmxF6Zv-FG-157" edge="1">
          <mxGeometry width="50" height="50" relative="1" as="geometry">
            <mxPoint x="1810" y="990" as="sourcePoint" />
            <mxPoint x="1860" y="940" as="targetPoint" />
            <Array as="points">
              <mxPoint x="2070" y="635" />
            </Array>
          </mxGeometry>
        </mxCell>
        <mxCell id="jeF95xI8hNJmxF6Zv-FG-160" value="" style="endArrow=none;html=1;rounded=0;exitX=1;exitY=0.5;exitDx=0;exitDy=0;entryX=0;entryY=0.5;entryDx=0;entryDy=0;" parent="1" source="jeF95xI8hNJmxF6Zv-FG-148" target="jeF95xI8hNJmxF6Zv-FG-158" edge="1">
          <mxGeometry width="50" height="50" relative="1" as="geometry">
            <mxPoint x="1810" y="990" as="sourcePoint" />
            <mxPoint x="1860" y="940" as="targetPoint" />
          </mxGeometry>
        </mxCell>
      </root>
    </mxGraphModel>
  </diagram>
</mxfile>
